<?xml version="1.0" encoding="iso-8859-1"?>
<!-- Generator: Adobe Illustrator 19.0.0, SVG Export Plug-In . SVG Version: 6.00 Build 0)  -->
<svg version="1.1" id="Capa_1" xmlns="http://www.w3.org/2000/svg" xmlns:xlink="http://www.w3.org/1999/xlink" x="0px" y="0px"
	 viewBox="0 0 512 512" style="enable-background:new 0 0 512 512;" xml:space="preserve">
<g>
	<g>
		<path d="M405.333,181.333c0,5.888,4.779,10.667,10.667,10.667h85.333c5.888,0,10.667-4.779,10.667-10.667V96.896
			c0-5.888-4.779-10.667-10.667-10.667c-5.888,0-10.667,4.757-10.667,10.667v62.976C433.835,55.253,353.045,0,256,0
			C114.837,0,0,114.837,0,256s114.837,256,256,256s256-114.837,256-256c0-5.888-4.779-10.667-10.667-10.667
			c-5.888,0-10.667,4.779-10.667,10.667c0,129.387-105.28,234.667-234.667,234.667S21.333,385.387,21.333,256
			S126.613,21.333,256,21.333c110.208,0,177.707,78.037,216.341,149.333H416C410.112,170.667,405.333,175.445,405.333,181.333z"/>
	</g>
</g>
<g>
</g>
<g>
</g>
<g>
</g>
<g>
</g>
<g>
</g>
<g>
</g>
<g>
</g>
<g>
</g>
<g>
</g>
<g>
</g>
<g>
</g>
<g>
</g>
<g>
</g>
<g>
</g>
<g>
</g>
</svg>
